PathFileType	4	(X/Y/Z)	C:/Users/opensim2020/Desktop/walking_exp_matlab/subject01_walking09_straight_03.trc																																																																																																																															
DataRate	CameraRate	NumFrames	NumMarkers	Units	OrigDataRate	OrigDataStartFrame	OrigNumFrames																																																																																																																											
100	100	7	43	mm	100	3018	348																																																																																																																											
Frame#	Time	LFHD			RFHD			LBHD			RBHD			C7			T10			CLAV			STRN			RBAK			LSHO			LUPA			LELB			LFRM			LWRA			LWRB			LFIN			RSHO			RUPA			RELB			RFRM			RWRA			RWRB			RFIN			LASI			RASI			LPSI			RPSI			LTHI			LKNE			LTIB			LANK			LHEE			LTOE			RTHI			RKNE			RTIB			RANK			RHEE			RTOE			*39			*40			*41			*42		
		X1	Y1	Z1	X2	Y2	Z2	X3	Y3	Z3	X4	Y4	Z4	X5	Y5	Z5	X6	Y6	Z6	X7	Y7	Z7	X8	Y8	Z8	X9	Y9	Z9	X10	Y10	Z10	X11	Y11	Z11	X12	Y12	Z12	X13	Y13	Z13	X14	Y14	Z14	X15	Y15	Z15	X16	Y16	Z16	X17	Y17	Z17	X18	Y18	Z18	X19	Y19	Z19	X20	Y20	Z20	X21	Y21	Z21	X22	Y22	Z22	X23	Y23	Z23	X24	Y24	Z24	X25	Y25	Z25	X26	Y26	Z26	X27	Y27	Z27	X28	Y28	Z28	X29	Y29	Z29	X30	Y30	Z30	X31	Y31	Z31	X32	Y32	Z32	X33	Y33	Z33	X34	Y34	Z34	X35	Y35	Z35	X36	Y36	Z36	X37	Y37	Z37	X38	Y38	Z38	X39	Y39	Z39	X40	Y40	Z40	X41	Y41	Z41	X42	Y42	Z42	X43	Y43	Z43
																																																																																																																																		
175	1.74	-57.39368	1663.57544	-1073.40002	-45.2593	1676.11682	-960.8269	-164.16917	1599.89099	-1063.29688	-154.12196	1611.17957	-943.43793	-179.27075	1420.54407	-1011.21527	-215.395	1129.1897	-999.32898	-35.17354	1352.85291	-1009.19763	6.13122	1196.4624	-1007.58038	-234.38129	1230.36804	-925.89807	-96.98272	1378.15527	-1170.90735	-138.8802	1192.81665	-1248.09497	-161.59467	1044.48376	-1242.68909	-134.51801	933.35803	-1264.85132	-70.00986	810.06476	-1241.75867	-123.55929	811.38013	-1269.10303	-83.82459	735.77161	-1275.03381	-96.18909	1384.53748	-858.53339	-131.24324	1184.65894	-746.64972	-113.06837	1060.28723	-736.73071	-55.46262	952.98114	-709.47211	48.04076	859.15314	-739.44873	11.0155	850.67365	-695.08197	66.6087	784.13531	-701.85992	-35.43771	922.56885	-1093.98047	-57.8271	919.71173	-875.75671	-226.09976	933.3111	-1063.63013	-240.33109	941.0426	-920.44446	8.29573	604.94385	-1161.59241	33.44904	475.45255	-1143.41443	34.90661	287.97797	-1156.45728	81.87364	71.78385	-1110.00928	47.56814	34.74498	-1055.0885	230.79526	67.12212	-1114.62976	-168.76628	594.17139	-837.41211	-191.5094	435.09308	-865.34045	-287.59235	286.1496	-866.35266	-362.50525	93.53095	-925.34906	-415.54791	66.91691	-979.5647	-231.86819	33.08267	-922.32178	-62.6874	1706.20276	-984.30542	1973.07007	1023.43268	-3102.06104	2012.42468	1021.91125	-3140.7312	NaN	NaN	NaN
176	1.75	-50.32155	1663.32239	-1075.32202	-38.40143	1675.98914	-962.80872	-157.1804	1599.53589	-1065.51953	-147.26007	1610.81824	-945.49622	-172.28418	1420.24316	-1013.01917	-207.77892	1128.5769	-1001.16046	-28.02851	1352.55237	-1010.84479	13.64673	1196.36426	-1009.10071	-227.13127	1229.82397	-927.94684	-89.77498	1377.61108	-1172.69324	-131.13087	1192.10669	-1249.75427	-153.57951	1043.58496	-1244.2832	-126.22463	932.55139	-1266.26514	-61.49762	809.52496	-1242.92676	-115.05219	810.66754	-1270.42053	-75.20693	735.15784	-1276.21863	-89.20937	1384.13062	-860.23792	-124.47523	1184.36902	-748.43726	-106.67739	1059.86755	-738.38116	-49.71478	952.24371	-710.94122	53.62851	858.00494	-740.32935	16.51537	849.62891	-696.09656	71.65727	782.99146	-702.73639	-27.38281	922.02136	-1095.13525	-50.00872	919.39288	-876.9151	-218.05971	932.95184	-1065.88086	-232.44066	940.80798	-922.35657	16.10288	604.34979	-1161.65198	40.78729	474.96899	-1143.44116	40.39396	287.29697	-1155.46899	84.74009	71.96809	-1109.66626	49.165	35.59973	-1054.91174	233.32945	63.0999	-1114.02747	-162.27251	594.13147	-838.3866	-185.78877	434.90759	-865.86273	-283.90228	287.35904	-866.61682	-361.36957	95.60902	-924.72546	-414.52106	69.12759	-978.75745	-231.72656	33.08141	-922.16058	-55.92996	1705.96399	-986.27032	1973.13843	1023.54688	-3101.88696	2012.41907	1022.04303	-3140.67456	NaN	NaN	NaN
177	1.76	-43.22014	1663.427	-1077.33069	-31.40892	1676.14063	-964.85193	-149.91457	1599.38721	-1067.58606	-140.27255	1610.83862	-947.66931	-165.07967	1420.18726	-1015.05066	-200.09171	1128.39624	-1002.85248	-20.81443	1352.54346	-1012.55072	21.16121	1196.54407	-1010.65057	-219.81667	1229.48682	-930.17596	-82.49524	1377.25769	-1174.56921	-123.30767	1191.51526	-1251.47681	-145.35046	1042.96631	-1245.927	-117.75887	931.92755	-1267.83423	-52.88964	809.04895	-1244.12463	-106.40981	810.01489	-1271.77173	-66.27686	734.60553	-1277.23376	-82.41558	1383.7616	-862.05829	-117.76566	1184.21045	-750.24286	-100.31856	1059.60095	-740.2157	-43.98815	951.64441	-712.39484	59.05864	857.03522	-741.43292	21.76191	848.86133	-697.28473	76.54291	781.9707	-703.67206	-19.3294	921.65973	-1096.37927	-42.10363	918.97534	-878.216	-209.92491	933.07605	-1067.96729	-224.81952	940.71313	-924.28857	23.4175	604.45074	-1162.04138	48.12199	475.3688	-1143.73853	46.6232	287.41602	-1154.75488	87.85019	71.89178	-1109.88489	50.80743	36.53229	-1055.41492	235.94952	59.91535	-1113.85742	-155.49731	593.91785	-839.52222	-179.60257	434.91986	-866.42078	-279.79407	288.78671	-866.88568	-360.18765	97.62759	-924.24506	-413.80621	72.6462	-978.09192	-231.51721	33.07958	-922.03827	-49.02246	1706.13599	-988.47174	1973.07166	1023.95709	-3102.01392	2012.54004	1022.10217	-3140.67651	NaN	NaN	NaN
178	1.77	-36.02077	1663.66174	-1079.42395	-24.33729	1676.56592	-966.84076	-142.61206	1599.55627	-1069.7334	-133.22772	1611.09949	-949.88904	-157.74359	1420.3689	-1017.01154	-192.46231	1128.47754	-1004.48633	-13.63146	1352.83289	-1014.2616	28.79123	1196.96924	-1012.30804	-212.61732	1229.27173	-932.44232	-75.16408	1377.06934	-1176.44165	-115.2873	1191.17078	-1253.31152	-136.95769	1042.51318	-1247.68188	-109.12648	931.44678	-1269.40857	-44.17247	808.74835	-1245.33093	-97.52112	809.59576	-1273.29138	-57.26766	734.32458	-1278.48376	-75.49351	1383.87549	-863.81995	-110.88582	1184.27747	-752.15839	-93.91154	1059.60767	-742.01093	-38.27737	951.32275	-713.96521	64.30757	856.112	-742.51495	26.85215	848.22632	-698.47711	81.35628	781.20001	-704.52112	-11.139	921.55231	-1097.58118	-34.17912	918.7699	-879.54669	-201.70131	933.63593	-1069.82495	-216.95634	940.73682	-925.96667	30.88991	605.01257	-1162.85474	55.66919	476.4621	-1144.04553	53.39324	288.08176	-1155.13672	90.2546	71.56596	-1110.30542	52.19617	37.29112	-1056.00452	237.93765	56.09264	-1114.10754	-148.50009	593.99634	-840.59515	-172.98599	434.91574	-866.98651	-275.43497	290.42194	-867.28833	-358.79083	100.29875	-923.78546	-412.8996	76.14253	-977.76953	-231.25092	32.99055	-922.04437	-42.10083	1706.36987	-990.65582	1973.15674	1023.4245	-3101.89819	2012.48816	1021.96332	-3140.60791	NaN	NaN	NaN
179	1.78	-28.77539	1664.01648	-1081.56738	-17.34318	1676.90723	-969.04474	-135.35573	1599.88342	-1072.01782	-126.15069	1611.57849	-952.09021	-150.33586	1420.66602	-1018.92944	-184.80743	1128.7196	-1006.10614	-6.41766	1353.29846	-1016.03467	36.47208	1197.55261	-1013.9848	-205.28419	1229.32324	-934.63239	-67.87574	1377.12036	-1178.30469	-107.21571	1191.04895	-1255.08276	-128.45473	1042.23621	-1249.47925	-100.34297	931.25543	-1271.02539	-34.93795	809.06274	-1246.8573	-88.44284	809.49432	-1274.88037	-48.08731	734.28809	-1279.86792	-68.41454	1384.2041	-865.59155	-104.01471	1184.55542	-754.164	-87.56397	1059.88464	-743.96698	-32.6376	951.27643	-715.58063	69.31667	855.50684	-743.72491	31.60741	847.90875	-699.76697	85.7057	780.4964	-705.53632	-2.94948	921.84686	-1098.88831	-26.08743	918.72571	-881.02063	-193.5336	934.52673	-1071.39136	-208.78683	940.98163	-927.36963	38.06977	605.81177	-1163.39502	63.42617	477.66275	-1144.50061	60.55548	288.87982	-1156.57556	92.03265	71.37498	-1111.00171	53.27783	38.24273	-1056.41833	239.30132	51.87526	-1114.19385	-140.77206	594.15277	-841.71417	-165.84796	435.103	-867.40601	-270.60641	292.14389	-867.60217	-356.86844	103.1266	-923.46515	-411.27005	79.92017	-977.49713	-230.92027	33.01957	-921.85962	-34.89805	1706.76965	-992.74567	1973.13452	1023.56396	-3101.8916	2012.40576	1021.87396	-3140.64136	NaN	NaN	NaN
180	1.79	-21.46355	1664.42261	-1083.65796	-10.21589	1677.4386	-971.17139	-128.13881	1600.39307	-1074.29541	-119.09881	1612.1106	-954.38623	-143.10574	1421.00024	-1020.83185	-177.14328	1129.07239	-1007.6897	0.87643	1353.87866	-1017.84424	44.17109	1198.28601	-1015.74152	-197.84047	1229.46313	-936.73755	-60.60962	1377.36487	-1180.13745	-99.1107	1191.18958	-1256.91284	-119.9034	1042.34375	-1251.2207	-91.40707	931.38263	-1272.74756	-25.87071	809.38257	-1248.26819	-79.29124	809.58258	-1276.47827	-38.75422	734.50842	-1281.33423	-61.2882	1384.92749	-867.34961	-97.13553	1185.09375	-756.21008	-81.20319	1060.42053	-745.96985	-27.16877	951.52338	-717.32556	74.17464	854.91718	-744.8941	36.35652	847.70709	-701.14453	90.1907	780.02039	-706.42908	5.27638	922.45398	-1100.31628	-17.98406	918.83203	-882.60004	-185.50386	935.49548	-1072.69275	-200.69905	941.41376	-928.6748	45.94403	607.03613	-1164.26379	71.28818	478.56851	-1145.11975	67.08201	289.30859	-1158.37988	93.47353	71.01771	-1111.45154	54.08011	38.79136	-1057.17407	240.41226	48.68634	-1114.50024	-132.8239	594.45465	-842.65802	-158.2518	435.39047	-867.56445	-265.62881	294.45901	-868.08008	-354.98679	106.37836	-923.19476	-409.30606	84.02525	-977.22083	-230.58139	33.06892	-921.67169	-27.66041	1707.55017	-994.82471	1973.17542	1023.40369	-3101.97437	2012.39722	1021.92493	-3140.75562	NaN	NaN	NaN
181	1.8	-14.16891	1664.88965	-1085.83911	-3.17129	1678.11621	-973.20459	-120.85885	1600.89441	-1076.56604	-112.0503	1612.77673	-956.62439	-135.99525	1421.38171	-1022.76172	-169.38419	1129.43823	-1009.28577	8.14735	1354.60168	-1019.68073	51.87583	1199.10486	-1017.40686	-190.47569	1229.82556	-938.68524	-53.40466	1377.79956	-1182.01758	-91.08984	1191.49023	-1258.73706	-111.32982	1042.57776	-1253.1156	-82.36483	931.77704	-1274.43542	-17.09387	809.48663	-1249.4906	-69.99344	809.97174	-1278.20056	-29.34202	735.10254	-1283.18213	-54.13726	1385.56055	-869.23291	-90.43049	1185.74426	-758.29004	-75.00821	1061.15796	-747.95245	-21.56879	952.22168	-719.0567	78.82838	854.88129	-746.28998	40.83102	847.63519	-702.48352	94.10758	779.62622	-707.55688	13.36708	923.30505	-1101.77527	-9.82234	919.20496	-884.21478	-177.54279	936.5437	-1073.8407	-192.24196	941.9729	-929.84369	54.34075	608.14905	-1165.19629	78.87827	478.84384	-1145.95264	72.62052	289.21628	-1160.28918	94.95966	70.93571	-1111.79211	55.01921	39.22219	-1057.44409	241.59059	46.50475	-1114.93018	-124.66957	594.83405	-843.56586	-150.00716	435.6026	-867.34607	-260.401	296.87219	-868.4184	-352.63406	110.02917	-922.77509	-406.97855	88.54593	-977.18268	-230.08911	33.13705	-921.49048	-20.55044	1707.91138	-997.06494	1973.11011	1023.41827	-3101.94702	2012.43018	1021.9538	-3140.75708	NaN	NaN	NaN
